<svg xmlns="http://www.w3.org/2000/svg">
    <symbol xmlns="http://www.w3.org/2000/svg" width="27" height="17" viewBox="0 0 27 17" fill="none" id="logo">
        <g clip-path="url(#clip0_80_6253)">
            <path d="M18.5698 11.8809C18.5174 11.7404 13.8749 2.50221 13.8051 2.36171C13.5607 1.76456 13.1244 1.25523 12.5484 0.903966C11.0998 0.0609365 9.24979 0.552704 8.41204 2.01044C7.83608 3.01154 7.87099 4.18827 8.42949 5.11911C8.48185 5.24206 12.9149 14.0939 13.0022 14.2344C13.0546 14.3749 13.1244 14.4978 13.1942 14.6383C13.4385 15.2355 13.8749 15.7448 14.4508 16.0961C15.8994 16.9391 17.7495 16.4649 18.5872 15.0071C19.1806 14.0061 19.1283 12.8118 18.5698 11.8809Z" fill="#0EF387"/>
            <path d="M13.212 5.62843C13.7182 5.08397 14.0323 4.34632 14.0323 3.53842C14.0323 1.86992 12.6884 0.5 11.0129 0.5C9.98319 0.5 9.07563 1.00933 8.53458 1.79967C8.42986 1.90505 0.907563 11.2486 0.820297 11.3716C0.314156 11.916 0 12.6537 0 13.4616C0 15.1476 1.36134 16.5 3.01939 16.5C4.04913 16.5 4.95669 15.9907 5.49774 15.2003C5.60246 15.0774 13.1422 5.75137 13.212 5.62843Z" fill="#FAFAFA"/>
            <path d="M26.1797 5.62843C26.6858 5.08397 27 4.34632 27 3.53842C27 1.85236 25.6386 0.5 23.9806 0.5C22.9508 0.5 22.0433 1.00933 21.5022 1.79967C21.3975 1.90505 13.8578 11.2486 13.7705 11.3716C13.2644 11.916 12.9502 12.6537 12.9502 13.4616C12.9502 15.1476 14.3115 16.5 15.9696 16.5C16.9993 16.5 17.9069 15.9907 18.4479 15.2003C18.5701 15.0774 26.0924 5.75137 26.1797 5.62843Z" fill="#FAFAFA"/>
        </g>
        <defs>
            <clipPath id="clip0_80_6253">
            <rect width="27" height="16" fill="white" transform="translate(0 0.5)"/>
            </clipPath>
        </defs>
    </symbol>

    <symbol xmlns="http://www.w3.org/2000/svg" width="20" height="20" viewBox="0 0 20 20" fill="none" id="eye-open">
        <path d="M0.833252 9.99998C0.833252 9.99998 4.16659 3.33331 9.99992 3.33331C15.8333 3.33331 19.1666 9.99998 19.1666 9.99998C19.1666 9.99998 15.8333 16.6666 9.99992 16.6666C4.16659 16.6666 0.833252 9.99998 0.833252 9.99998Z" stroke="#FAFAFA" stroke-width="1.5" stroke-linecap="round" stroke-linejoin="round"/>
        <path d="M10 12.5C11.3807 12.5 12.5 11.3807 12.5 10C12.5 8.61929 11.3807 7.5 10 7.5C8.61929 7.5 7.5 8.61929 7.5 10C7.5 11.3807 8.61929 12.5 10 12.5Z" stroke="#FAFAFA" stroke-width="1.5" stroke-linecap="round" stroke-linejoin="round"/>
    </symbol>
    
    <symbol xmlns="http://www.w3.org/2000/svg" width="20" height="20" viewBox="0 0 20 20" fill="none" id="eye-close">
        <g clip-path="url(#clip0_80_6288)">
            <path d="M14.9499 14.95C13.5254 16.0358 11.7908 16.6374 9.99992 16.6667C4.16659 16.6667 0.833252 10 0.833252 10C1.86983 8.06825 3.30753 6.38051 5.04992 5.05M8.24992 3.53333C8.82353 3.39907 9.41081 3.33195 9.99992 3.33333C15.8333 3.33333 19.1666 10 19.1666 10C18.6607 10.9463 18.0575 11.8373 17.3666 12.6583M11.7666 11.7667C11.5377 12.0123 11.2617 12.2093 10.955 12.3459C10.6484 12.4826 10.3173 12.556 9.98166 12.562C9.64599 12.5679 9.31256 12.5061 9.00126 12.3804C8.68997 12.2547 8.40719 12.0675 8.16979 11.8301C7.9324 11.5927 7.74525 11.31 7.61951 10.9987C7.49377 10.6874 7.43202 10.3539 7.43795 10.0183C7.44387 9.68258 7.51734 9.35154 7.65398 9.04487C7.79062 8.73821 7.98763 8.46221 8.23325 8.23333" stroke="#FAFAFA" stroke-width="1.5" stroke-linecap="round" stroke-linejoin="round"/>
            <path d="M0.833252 0.833313L19.1666 19.1666" stroke="#FAFAFA" stroke-width="1.5" stroke-linecap="round" stroke-linejoin="round"/>
        </g>
        <defs>
            <clipPath id="clip0_80_6288">
            <rect width="20" height="20" fill="white"/>
            </clipPath>
        </defs>
    </symbol>

    <symbol xmlns="http://www.w3.org/2000/svg" width="15" height="16" viewBox="0 0 15 16" fill="none" id="arrow-down">
        <path d="M1.60057 14.75C1.6654 15.2984 2.16258 15.6905 2.71104 15.6257L11.6488 14.5692C12.1973 14.5044 12.5894 14.0072 12.5245 13.4588C12.4597 12.9103 11.9625 12.5182 11.4141 12.5831L3.46937 13.5221L2.53031 5.57742C2.46548 5.02895 1.96831 4.63689 1.41984 4.70172C0.871378 4.76654 0.479311 5.26372 0.544139 5.81218L1.60057 14.75ZM12.5624 0.376388L1.80844 14.0134L3.37888 15.2518L14.1329 1.61482L12.5624 0.376388Z" fill="#0C0D0D"/>
    </symbol>

    <symbol xmlns="http://www.w3.org/2000/svg" width="15" height="17" viewBox="0 0 15 17" fill="none" id="arrow-up">
        <path d="M12.7618 0.856683C12.6826 0.310102 12.1753 -0.0688157 11.6288 0.0103471L2.7217 1.30039C2.17512 1.37955 1.7962 1.88681 1.87536 2.4334C1.95453 2.97998 2.46179 3.3589 3.00837 3.27973L10.9258 2.13303L12.0725 10.0504C12.1516 10.597 12.6589 10.9759 13.2055 10.8968C13.7521 10.8176 14.131 10.3103 14.0518 9.76375L12.7618 0.856683ZM1.80116 16.0193L12.5733 1.59847L10.9709 0.401571L0.19884 14.8224L1.80116 16.0193Z" fill="#0C0D0D"/>
    </symbol>

    <symbol xmlns="http://www.w3.org/2000/svg" width="16" height="17" viewBox="0 0 16 17" fill="none" id="profile-settings">
        <path d="M13.3332 14.5V13.1667C13.3332 12.4594 13.0522 11.7811 12.5521 11.281C12.052 10.781 11.3737 10.5 10.6665 10.5H5.33317C4.62593 10.5 3.94765 10.781 3.44755 11.281C2.94746 11.7811 2.6665 12.4594 2.6665 13.1667V14.5" stroke="#838383" stroke-width="1.3" stroke-linecap="round" stroke-linejoin="round"/>
        <path d="M8.00016 7.83333C9.47292 7.83333 10.6668 6.63943 10.6668 5.16667C10.6668 3.69391 9.47292 2.5 8.00016 2.5C6.5274 2.5 5.3335 3.69391 5.3335 5.16667C5.3335 6.63943 6.5274 7.83333 8.00016 7.83333Z" stroke="#838383" stroke-width="1.3" stroke-linecap="round" stroke-linejoin="round"/>
    </symbol>

    <svg xmlns="http://www.w3.org/2000/svg" width="16" height="17" viewBox="0 0 16 17" fill="none" id="log-out">
        <path d="M6 14.5H3.33333C2.97971 14.5 2.64057 14.3595 2.39052 14.1095C2.14048 13.8594 2 13.5203 2 13.1667V3.83333C2 3.47971 2.14048 3.14057 2.39052 2.89052C2.64057 2.64048 2.97971 2.5 3.33333 2.5H6" stroke="#838383" stroke-width="1.3" stroke-linecap="round" stroke-linejoin="round"/>
        <path d="M10.6667 11.8334L14 8.50002L10.6667 5.16669" stroke="#838383" stroke-width="1.3" stroke-linecap="round" stroke-linejoin="round"/>
        <path d="M14 8.5H6" stroke="#838383" stroke-width="1.3" stroke-linecap="round" stroke-linejoin="round"/>
    </svg>

    <symbol xmlns="http://www.w3.org/2000/svg" width="38" height="38" viewBox="0 0 38 38" fill="none" id="user-profile">
        <path d="M34.7909 31.1719C32.7558 27.6001 29.5779 24.817 25.7689 23.2706C27.6631 21.85 29.0622 19.8693 29.7682 17.6093C30.4742 15.3493 30.4512 12.9244 29.7024 10.6782C28.9537 8.43193 27.5172 6.47822 25.5964 5.09378C23.6756 3.70934 21.3679 2.96436 19.0001 2.96436C16.6324 2.96436 14.3247 3.70934 12.4039 5.09378C10.483 6.47822 9.04652 8.43193 8.29778 10.6782C7.54904 12.9244 7.52602 15.3493 8.23201 17.6093C8.93799 19.8693 10.3372 21.85 12.2314 23.2706C8.42234 24.817 5.24447 27.6001 3.20933 31.1719C3.08323 31.3747 2.99918 31.6008 2.96218 31.8367C2.92519 32.0726 2.936 32.3135 2.99398 32.5451C3.05196 32.7768 3.15592 32.9944 3.29968 33.185C3.44344 33.3757 3.62407 33.5355 3.83083 33.655C4.03759 33.7744 4.26625 33.8511 4.50323 33.8804C4.74021 33.9097 4.98066 33.8911 5.2103 33.8256C5.43993 33.7602 5.65406 33.6492 5.83995 33.4993C6.02584 33.3494 6.1797 33.1637 6.29238 32.9532C8.98207 28.3041 13.7321 25.5313 19.0001 25.5313C24.2682 25.5313 29.0182 28.3056 31.7079 32.9532C31.9521 33.3458 32.3394 33.6282 32.7879 33.7404C33.2365 33.8527 33.7112 33.7861 34.1115 33.5548C34.5119 33.3235 34.8067 32.9455 34.9334 32.5009C35.0602 32.0562 35.0091 31.5796 34.7909 31.1719ZM11.2814 14.2501C11.2814 12.7234 11.7341 11.2311 12.5822 9.96175C13.4304 8.69241 14.6359 7.70308 16.0463 7.11886C17.4567 6.53465 19.0087 6.38179 20.506 6.67962C22.0033 6.97745 23.3786 7.71259 24.4581 8.79208C25.5376 9.87156 26.2727 11.2469 26.5706 12.7442C26.8684 14.2415 26.7155 15.7935 26.1313 17.2039C25.5471 18.6143 24.5578 19.8198 23.2884 20.668C22.0191 21.5161 20.5267 21.9688 19.0001 21.9688C16.9537 21.9665 14.9918 21.1525 13.5447 19.7054C12.0977 18.2584 11.2837 16.2965 11.2814 14.2501Z" fill="#0EF387"/>
    </symbol>

    <symbol xmlns="http://www.w3.org/2000/svg" width="20" height="20" viewBox="0 0 20 20" fill="none" id="calendar">
        <path d="M15.8333 3.33337H4.16667C3.24619 3.33337 2.5 4.07957 2.5 5.00004V16.6667C2.5 17.5872 3.24619 18.3334 4.16667 18.3334H15.8333C16.7538 18.3334 17.5 17.5872 17.5 16.6667V5.00004C17.5 4.07957 16.7538 3.33337 15.8333 3.33337Z" stroke="#FAFAFA" stroke-width="1.5" stroke-linecap="round" stroke-linejoin="round"/>
        <path d="M13.3333 1.66663V4.99996" stroke="#FAFAFA" stroke-width="1.5" stroke-linecap="round" stroke-linejoin="round"/>
        <path d="M6.66666 1.66663V4.99996" stroke="#FAFAFA" stroke-width="1.5" stroke-linecap="round" stroke-linejoin="round"/>
        <path d="M2.5 8.33337H17.5" stroke="#FAFAFA" stroke-width="1.5" stroke-linecap="round" stroke-linejoin="round"/>
    </symbol>

    <symbol xmlns="http://www.w3.org/2000/svg" width="20" height="20" viewBox="0 0 20 20" fill="none" id="clock">
        <g clip-path="url(#clip0_29_43)">
            <path d="M10 18.3333C14.6024 18.3333 18.3333 14.6023 18.3333 9.99996C18.3333 5.39759 14.6024 1.66663 10 1.66663C5.39762 1.66663 1.66666 5.39759 1.66666 9.99996C1.66666 14.6023 5.39762 18.3333 10 18.3333Z" stroke="#FAFAFA" stroke-width="1.5" stroke-linecap="round" stroke-linejoin="round"/>
            <path d="M10 5V10L13.3333 11.6667" stroke="#FAFAFA" stroke-width="1.5" stroke-linecap="round" stroke-linejoin="round"/>
        </g>
        <defs>
            <clipPath id="clip0_29_43">
            <rect width="20" height="20" fill="white"/>
            </clipPath>
        </defs>
    </symbol>

    <symbol xmlns="http://www.w3.org/2000/svg" width="16" height="16" viewBox="0 0 16 16" fill="none" id="check">
        <path d="M13.3334 4L6.00002 11.3333L2.66669 8" stroke="#0EF387" stroke-width="1.5" stroke-linecap="round" stroke-linejoin="round"/>
    </symbol>

    <symbol xmlns="http://www.w3.org/2000/svg" width="16" height="16" viewBox="0 0 16 16" fill="none" id="pen-category">
        <g clip-path="url(#clip0_118_2952)">
            <path d="M11.3333 2.00004C11.5084 1.82494 11.7163 1.68605 11.9451 1.59129C12.1739 1.49653 12.4191 1.44775 12.6667 1.44775C12.9143 1.44775 13.1595 1.49653 13.3883 1.59129C13.617 1.68605 13.8249 1.82494 14 2.00004C14.1751 2.17513 14.314 2.383 14.4088 2.61178C14.5035 2.84055 14.5523 3.08575 14.5523 3.33337C14.5523 3.58099 14.5035 3.82619 14.4088 4.05497C14.314 4.28374 14.1751 4.49161 14 4.6667L5.00001 13.6667L1.33334 14.6667L2.33334 11L11.3333 2.00004Z" stroke="#0EF387" stroke-width="1.5" stroke-linecap="round" stroke-linejoin="round"/>
        </g>
        <defs>
            <clipPath id="clip0_118_2952">
            <rect width="16" height="16" fill="white"/>
            </clipPath>
        </defs>
    </symbol>
    
    <symbol xmlns="http://www.w3.org/2000/svg" width="16" height="15" viewBox="0 0 16 15" fill="none" id="pen-history">
        <path d="M11.3335 1.50004C11.5086 1.32494 11.7165 1.18605 11.9452 1.09129C12.174 0.996527 12.4192 0.947754 12.6668 0.947754C12.9145 0.947754 13.1596 0.996527 13.3884 1.09129C13.6172 1.18605 13.8251 1.32494 14.0002 1.50004C14.1753 1.67513 14.3142 1.883 14.4089 2.11178C14.5037 2.34055 14.5524 2.58575 14.5524 2.83337C14.5524 3.08099 14.5037 3.32619 14.4089 3.55497C14.3142 3.78374 14.1753 3.99161 14.0002 4.1667L5.00016 13.1667L1.3335 14.1667L2.3335 10.5L11.3335 1.50004Z" stroke="#0C0D0D" stroke-width="1.5" stroke-linecap="round" stroke-linejoin="round"/>
    </symbol>

    <symbol xmlns="http://www.w3.org/2000/svg" width="16" height="16" viewBox="0 0 16 16" fill="none" id="trash-category">
        <path d="M2 4H3.33333H14" stroke="#0EF387" stroke-width="1.5" stroke-linecap="round" stroke-linejoin="round"/>
        <path d="M12.6667 4.00004V13.3334C12.6667 13.687 12.5262 14.0261 12.2762 14.2762C12.0261 14.5262 11.687 14.6667 11.3333 14.6667H4.66668C4.31306 14.6667 3.97392 14.5262 3.72387 14.2762C3.47382 14.0261 3.33334 13.687 3.33334 13.3334V4.00004M5.33334 4.00004V2.66671C5.33334 2.31309 5.47382 1.97395 5.72387 1.7239C5.97392 1.47385 6.31306 1.33337 6.66668 1.33337H9.33335C9.68697 1.33337 10.0261 1.47385 10.2762 1.7239C10.5262 1.97395 10.6667 2.31309 10.6667 2.66671V4.00004" stroke="#0EF387" stroke-width="1.5" stroke-linecap="round" stroke-linejoin="round"/>
        <path d="M6.66666 7.33337V11.3334" stroke="#0EF387" stroke-width="1.5" stroke-linecap="round" stroke-linejoin="round"/>
        <path d="M9.33334 7.33337V11.3334" stroke="#0EF387" stroke-width="1.5" stroke-linecap="round" stroke-linejoin="round"/>
    </symbol>

    <symbol xmlns="http://www.w3.org/2000/svg" width="16" height="17" viewBox="0 0 16 17" fill="none" id="trash-history">
        <path d="M2 4.5H3.33333H14" stroke="#FAFAFA" stroke-width="1.5" stroke-linecap="round" stroke-linejoin="round"/>
        <path d="M12.6668 4.50004V13.8334C12.6668 14.187 12.5264 14.5261 12.2763 14.7762C12.0263 15.0262 11.6871 15.1667 11.3335 15.1667H4.66683C4.31321 15.1667 3.97407 15.0262 3.72402 14.7762C3.47397 14.5261 3.3335 14.187 3.3335 13.8334V4.50004M5.3335 4.50004V3.16671C5.3335 2.81309 5.47397 2.47395 5.72402 2.2239C5.97407 1.97385 6.31321 1.83337 6.66683 1.83337H9.3335C9.68712 1.83337 10.0263 1.97385 10.2763 2.2239C10.5264 2.47395 10.6668 2.81309 10.6668 3.16671V4.50004" stroke="#FAFAFA" stroke-width="1.5" stroke-linecap="round" stroke-linejoin="round"/>
        <path d="M6.6665 7.83337V11.8334" stroke="#FAFAFA" stroke-width="1.5" stroke-linecap="round" stroke-linejoin="round"/>
        <path d="M9.3335 7.83337V11.8334" stroke="#FAFAFA" stroke-width="1.5" stroke-linecap="round" stroke-linejoin="round"/>
    </symbol>

    <symbol xmlns="http://www.w3.org/2000/svg" width="20" height="20" viewBox="0 0 20 20" fill="none" id="search">
        <path d="M9.16667 15.8333C12.8486 15.8333 15.8333 12.8486 15.8333 9.16667C15.8333 5.48477 12.8486 2.5 9.16667 2.5C5.48477 2.5 2.5 5.48477 2.5 9.16667C2.5 12.8486 5.48477 15.8333 9.16667 15.8333Z" stroke="#0EF387" stroke-width="1.5" stroke-linecap="round" stroke-linejoin="round"/>
        <path d="M17.5 17.5L13.875 13.875" stroke="#0EF387" stroke-width="1.5" stroke-linecap="round" stroke-linejoin="round"/>
    </symbol>

    <symbol xmlns="http://www.w3.org/2000/svg" width="24" height="24" viewBox="0 0 24 24" fill="none" id="close">
        <path d="M18 6L6 18" stroke="#FAFAFA" stroke-width="2" stroke-linecap="round" stroke-linejoin="round"/>
        <path d="M6 6L18 18" stroke="#FAFAFA" stroke-width="2" stroke-linecap="round" stroke-linejoin="round"/>
    </symbol>

    <symbol xmlns="http://www.w3.org/2000/svg" width="20" height="20" viewBox="0 0 20 20" fill="none" id="chevron-down">
        <path d="M5 7.5L10 12.5L15 7.5" stroke="#0EF387" stroke-width="2" stroke-linecap="round" stroke-linejoin="round"/>
    </symbol>

    <symbol xmlns="http://www.w3.org/2000/svg" width="44" height="44" viewBox="0 0 44 44" fill="none" id="burger">
        <path d="M5.5 15.5833H38.5M5.5 28.4167H38.5" stroke="#FAFAFA" stroke-width="3" stroke-linecap="round" stroke-linejoin="round"/>
    </symbol>

    <symbol xmlns="http://www.w3.org/2000/svg" width="27" height="28" viewBox="0 0 27 28" fill="none" id="burger-close">
        <path d="M3.78221 27.1851L0 23.2472L9.77967 13.8541L0.38649 4.07439L4.10796 0.5L13.5011 10.2797L23.0212 1.13587L26.8034 5.0737L17.2833 14.2175L26.6765 23.9972L22.955 27.5716L13.5619 17.7919L3.78221 27.1851Z" fill="#0C0D0D"/>
    </symbol>
</svg>